Coordinates
version=1
nRows=16
nColumns=24
inDegrees=yes

Units are S.I. units (second, meters, Newtons, ...)
If the header above contains a line with 'inDegrees', this indicates whether rotational values are in degrees (yes) or radians (no).

endheader
time	pelvis_tilt	pelvis_list	pelvis_rotation	pelvis_tx	pelvis_ty	pelvis_tz	hip_flexion_r	hip_adduction_r	hip_rotation_r	knee_angle_r	ankle_angle_r	subtalar_angle_r	mtp_angle_r	hip_flexion_l	hip_adduction_l	hip_rotation_l	knee_angle_l	ankle_angle_l	subtalar_angle_l	mtp_angle_l	lumbar_extension	lumbar_bending	lumbar_rotation
0.200000	9.837497	2.098375	-178.196081	0.218061	0.849892	-1.199698	14.256872	-10.238290	-33.789747	-10.020615	0.267323	10.583447	0.000000	15.218916	-13.759986	-29.229267	-9.820554	1.734358	17.617169	0.000000	5.770154	1.628640	-3.201334
0.205000	9.840590	2.093485	-178.192825	0.218051	0.849865	-1.199718	14.256814	-10.242510	-33.781852	-10.019766	0.261942	10.578806	0.000000	15.233949	-13.762252	-29.222708	-9.851744	1.737985	17.618360	0.000000	5.782329	1.618817	-3.186670
0.210000	9.841993	2.090823	-178.193056	0.218021	0.849848	-1.199730	14.256348	-10.243675	-33.777934	-10.021872	0.258301	10.579070	0.000000	15.232461	-13.760744	-29.223083	-9.853423	1.739017	17.618515	0.000000	5.790244	1.622366	-3.189001
0.215000	9.842045	2.091564	-178.193195	0.217983	0.849830	-1.199742	14.256158	-10.243069	-33.772800	-10.027117	0.254698	10.579619	0.000000	15.231265	-13.762626	-29.222352	-9.853242	1.741739	17.618896	0.000000	5.798090	1.623998	-3.188709
0.220000	9.849851	2.111871	-178.211643	0.217961	0.849827	-1.199758	14.275787	-10.220064	-33.762797	-10.045129	0.250669	10.574608	0.000000	15.228735	-13.783956	-29.219583	-9.835643	1.750017	17.618112	0.000000	5.815765	1.637883	-3.131189
0.225000	9.849138	2.112169	-178.219994	0.217899	0.849840	-1.199741	14.273943	-10.219987	-33.763555	-10.045440	0.252445	10.572810	0.000000	15.221887	-13.785446	-29.220331	-9.843134	1.750743	17.616123	0.000000	5.825138	1.640896	-3.129981
0.230000	9.850136	2.113123	-178.219700	0.217905	0.849856	-1.199820	14.273769	-10.214714	-33.760251	-10.043507	0.254746	10.573345	0.000000	15.223989	-13.791062	-29.223479	-9.844548	1.752918	17.612897	0.000000	5.824121	1.630120	-3.132090
0.235000	9.861234	2.103185	-178.212044	0.217911	0.849835	-1.199849	14.273586	-10.218241	-33.708841	-10.021357	0.284078	10.554246	0.000000	15.252802	-13.787326	-29.223604	-9.883714	1.791693	17.600675	0.000000	5.842543	1.614135	-3.138341
0.240000	9.860201	2.104187	-178.208587	0.217873	0.849835	-1.199877	14.269232	-10.215884	-33.709084	-10.022951	0.281847	10.552463	0.000000	15.251126	-13.790080	-29.222886	-9.885824	1.791665	17.600556	0.000000	5.852036	1.605061	-3.133247
0.245000	9.865841	2.116617	-178.218308	0.217839	0.849846	-1.199853	14.280813	-10.205253	-33.729534	-10.030879	0.280992	10.528036	0.000000	15.247885	-13.800116	-29.219338	-9.871748	1.786961	17.601153	0.000000	5.871026	1.611984	-3.059028
0.250000	9.861048	2.133934	-178.235150	0.217786	0.849863	-1.199838	14.286846	-10.189659	-33.750346	-10.055635	0.285317	10.509113	0.000000	15.235331	-13.822457	-29.233114	-9.870788	1.778831	17.584960	0.000000	5.881074	1.624285	-3.000615
0.255000	9.855470	2.146574	-178.268676	0.217732	0.849857	-1.199835	14.284613	-10.169365	-33.728349	-10.056369	0.280931	10.523332	0.000000	15.214225	-13.839383	-29.243962	-9.867865	1.785109	17.566601	0.000000	5.882756	1.649682	-2.953945
0.260000	9.855946	2.144868	-178.269324	0.217710	0.849847	-1.199860	14.281361	-10.170138	-33.725858	-10.055475	0.276937	10.524496	0.000000	15.213088	-13.838614	-29.244352	-9.872472	1.785641	17.565040	0.000000	5.889378	1.647863	-2.957530
0.265000	9.880873	2.126482	-178.258629	0.217748	0.849813	-1.199889	14.293599	-10.182827	-33.680712	-10.020036	0.240453	10.536259	0.000000	15.251531	-13.819742	-29.235259	-9.887355	1.810914	17.564820	0.000000	5.914220	1.611752	-2.961077
0.270000	9.881539	2.127135	-178.252685	0.217728	0.849825	-1.199924	14.292208	-10.179839	-33.678497	-10.020628	0.240133	10.536360	0.000000	15.254670	-13.821641	-29.235042	-9.887687	1.811490	17.564661	0.000000	5.916311	1.604495	-2.962257
0.275000	9.881418	2.126628	-178.252366	0.217704	0.849865	-1.199924	14.292546	-10.179694	-33.678605	-10.020569	0.240353	10.536139	0.000000	15.254380	-13.821816	-29.234914	-9.887704	1.811485	17.564711	0.000000	5.916773	1.605038	-2.962259
